<svg xmlns="http://www.w3.org/2000/svg" width="224.896" height="214.832" viewBox="0 0 224.896 214.832">
  <g id="Group_33" data-name="Group 33" transform="translate(-657.204 374.267)">
    <g id="Group_27" data-name="Group 27" transform="translate(616.5 -450.5)">
      <path id="Path_9" data-name="Path 9" d="M155.713,178.8c-11.646-25.153-22.66-48.91-44.68-58.1-14.021-5.855-30.512-5.261-46.435,1.656a76.034,76.034,0,0,0-13.7,7.766A130.3,130.3,0,0,1,73.1,96.395q3.876-4.248,8-8.008c16.972-13.723,40.032-16.137,55.226-5.645,13.267,9.148,18.4,28.637,24.343,51.2,5,18.973,11.679,39.645,23.591,57.313,9.881,14.648,23.488,26.175,37.5,24.575,11.355-1.6,23.413-20.873,16.674-53.626-2.66-12.926-9.195-26.705-16.378-40.2-5.836-10.964-12.1-21.681-16.942-31.575-2.174-4.439,1.806-8.238,5.285-5.589s6.839,5.461,10.091,8.453,6.375,6.148,9.372,9.469,5.853,6.781,8.571,10.394,5.288,7.36,7.7,11.238,4.675,7.875,6.771,11.989,4.023,8.324,5.781,12.636,3.337,8.707,4.741,13.184v.047c8.814,28.91,2.453,53.129-11.017,67.68-7.573,7.476-16.061,12.289-25.024,14.046a37.389,37.389,0,0,1-4.009.579q-.81.075-1.621.117c-.269,0-.536.027-.809.039-12.169.387-24.346-4.758-34.2-14.645C173.109,216.375,164.267,197.281,155.713,178.8Zm0,0" transform="translate(-1.887)" fill="#fff"/>
    </g>
    <g id="Group_32" data-name="Group 32" transform="translate(657.204 -327.937)">
      <path id="Path_9-2" data-name="Path 9" d="M162.669,142.168c11.646,25.153,22.66,48.91,44.68,58.1,14.021,5.855,30.512,5.261,46.435-1.656a76.034,76.034,0,0,0,13.7-7.766,130.3,130.3,0,0,1-22.2,33.727q-3.876,4.248-8,8.008c-16.972,13.723-40.032,16.137-55.226,5.645-13.267-9.148-18.4-28.637-24.343-51.2-5-18.973-11.679-39.645-23.591-57.313-9.881-14.648-23.488-26.175-37.5-24.575-11.355,1.6-23.413,20.873-16.674,53.626,2.66,12.926,9.195,26.705,16.378,40.2,5.836,10.964,12.1,21.681,16.942,31.575,2.174,4.439-1.806,8.238-5.285,5.589s-6.839-5.461-10.091-8.453-6.375-6.148-9.372-9.469-5.853-6.781-8.571-10.394-5.288-7.36-7.7-11.238-4.675-7.875-6.771-11.989-4.023-8.324-5.781-12.636-3.337-8.707-4.741-13.184v-.047c-8.814-28.91-2.453-53.129,11.017-67.68C73.549,83.559,82.037,78.746,91,76.989a37.389,37.389,0,0,1,4.009-.579q.81-.075,1.621-.117c.269,0,.536-.027.809-.039,12.169-.387,24.346,4.758,34.2,14.645C145.273,104.594,154.115,123.688,162.669,142.168Zm0,0" transform="translate(-50.895 -76.233)" fill="#fff"/>
    </g>
  </g>
</svg>
