<?xml version="1.0" encoding="UTF-8"?>
<svg id="Layer_2" data-name="Layer 2" xmlns="http://www.w3.org/2000/svg" viewBox="0 0 50.61 48.36">
  <defs>
    <style>
      .cls-1 {
        fill: #6d6dd2;
      }
    </style>
  </defs>
  <g id="Layer_2-2" data-name="Layer 2">
    <g id="Layer_2-2" data-name="Layer 2-2">
      <g id="Group_33" data-name="Group 33">
        <g id="Group_27" data-name="Group 27">
          <path id="Path_9" data-name="Path 9" class="cls-1" d="M25.45,23.1c-2.62-5.66-5.1-11.01-10.06-13.08-3.16-1.32-6.87-1.18-10.46.37-1.09.47-2.12,1.06-3.08,1.75,1.26-2.78,2.95-5.34,5-7.59.58-.64,1.18-1.24,1.8-1.8C12.47-.35,17.67-.9,21.09,1.47c2.99,2.06,4.14,6.45,5.48,11.53,1.13,4.27,2.63,8.93,5.31,12.91,2.22,3.3,5.29,5.89,8.44,5.53,2.56-.36,5.27-4.7,3.75-12.08-.6-2.91-2.07-6.01-3.69-9.05-1.31-2.47-2.72-4.88-3.81-7.11-.49-1,.41-1.85,1.19-1.26.78.59,1.54,1.23,2.27,1.9.73.67,1.44,1.38,2.11,2.13s1.32,1.53,1.93,2.34,1.19,1.66,1.73,2.53,1.05,1.77,1.52,2.7.91,1.87,1.3,2.85.75,1.96,1.07,2.97h0c1.98,6.52.55,11.97-2.48,15.25-1.71,1.68-3.62,2.77-5.63,3.16-.3.06-.6.1-.9.13-.12,0-.24.02-.37.03h-.18c-2.74.09-5.48-1.07-7.7-3.3-3.07-3.08-5.06-7.38-6.99-11.54h.01Z"/>
        </g>
        <g id="Group_32" data-name="Group 32">
          <path id="Path_9-2" data-name="Path 9-2" class="cls-1" d="M25.15,25.28c2.62,5.66,5.1,11.01,10.06,13.08,3.16,1.32,6.87,1.18,10.46-.37,1.09-.47,2.12-1.06,3.08-1.75-1.26,2.78-2.95,5.34-5,7.59-.58.64-1.18,1.24-1.8,1.8-3.82,3.09-9.01,3.63-12.44,1.27-2.99-2.06-4.14-6.45-5.48-11.53-1.13-4.27-2.63-8.93-5.31-12.91-2.22-3.3-5.29-5.89-8.44-5.53-2.56.36-5.27,4.7-3.75,12.08.6,2.91,2.07,6.01,3.69,9.05,1.31,2.47,2.72,4.88,3.81,7.11.49,1-.41,1.85-1.19,1.26s-1.54-1.23-2.27-1.9-1.44-1.38-2.11-2.13-1.32-1.53-1.93-2.34-1.19-1.66-1.73-2.53-1.05-1.77-1.52-2.7-.91-1.87-1.3-2.85-.75-1.96-1.07-2.97h0c-1.98-6.52-.55-11.97,2.48-15.25,1.71-1.68,3.62-2.77,5.63-3.16.3-.06.6-.1.9-.13.12-.01.24-.02.37-.03h.18c2.74-.09,5.48,1.07,7.7,3.3,3.07,3.08,5.06,7.38,6.99,11.54h0Z"/>
        </g>
      </g>
    </g>
  </g>
</svg>